
        <svg xmlns="http://www.w3.org/2000/svg" xmlns:xlink="http://www.w3.org/1999/xlink" version="1.1" width="3222.222222222222" height="3147.322844494802" viewBox="0 0 3222.222222222222 3147.322844494802">
			
			<g transform="scale(11.11111111111111) translate(10, 10)">
				<defs id="SvgjsDefs3577"/><g id="SvgjsG3578" featureKey="rootContainer" transform="matrix(2.5809711372993354,0,0,2.5809711372993354,0.030434266996216174,0)" fill="#fff"><path xmlns="http://www.w3.org/2000/svg" d="M50.8 102h5.8l1.8-.2 1.7-.3h1.7l1.9-.3 1.8-.4.9-.2.9-.3 1.7-.6 2-.8a54 54 0 0 0 15.3-9.4l1.4-1.2.7-.5.6-.4 1-.5.8-.5 1.5-1.2 1.5-1.5.8-1 .9-1.1a50.9 50.9 0 0 0 3.9-5.8 34.8 34.8 0 0 0 1.6-3.1l.2-.4.2-.4.3-.8.3-.9.2-.4v-.4l.4-1.2.2-.6v-.3h.1v-.2l.7-2.5c.2-.9.4-1.7.5-2.6a25.4 25.4 0 0 0 .2-2.6v-3.1c0-.3 0-1 .1-1.5v-2.1a21.3 21.3 0 0 0 .2-2.6v-2.6c0-.9-.1-1.1-.1-1.6l-.2-1.5c-.1-1-.4-2-.5-3s-.2-1-.3-1.4l-.3-1.4-.3-1.4v-1.7l-.4-1.4-.2-.7-.2-.7-.4-1.4-.5-1.4-.4-1-.5-1-1-2.1a40.7 40.7 0 0 1-1.8-4.1 3.6 3.6 0 0 0-.8-1.2l-.7-.6-.2-.3-.3-.5a25.7 25.7 0 0 0-1.6-2.3l-.8-1.1-.9-1.1-.4-.5-.2-.3-.2-.2h-.1l-.9-1-.5-.5-.5-.5-.9-1.1-1.1-1a47.9 47.9 0 0 0-3.8-3l-.1-.5-1.3-.9A29 29 0 0 0 72 .4h-3.1a.8.8 0 0 0-.6 1.2A3.9 3.9 0 0 0 69.9 3l-.6.3-.4-.2a.9.9 0 0 0 0-.3c-.1-.5-.2-.9-1.3-1.3L65.3.7l-.6-.2h-.6L62.8 0l-1.3 1.2A48.5 48.5 0 0 0 39 2.4 31.1 31.1 0 0 0 31.4 4h-.5l-.5.2-1 .4-1 .5-.9.6-1.8 1.5-.8.6-.7.7c-1 .9-1.9 1.9-2.8 2.8L20 12.8l-1.4 1.5-.5.5-.5.5-1.1 1a55.1 55.1 0 0 0-7 7l.2-.5.6-1.1.6-1.1.6-1.1.6-1.2.6-1.2 1.2-2.4.4-.8.3-.6a1 1 0 0 0 0-.8 3.7 3.7 0 0 1-.2-1.2 17.1 17.1 0 0 0-2.1 1.1l-1.5 1.1-.8.6-.7.7-.8 1-.5 1-.5 1-.2.5-.3.5-.3.6-.4.8-.4.8-.7 1.7-.5 1.3-.5 1.3v.7l-.2.6-.3 1.3v.2h-.4v.3l-.2.7-.3 1.4-.2.7-.2.7-.4 1.7-.4 1.9-.2.9v2.8l-.6 1.9a38.3 38.3 0 0 0-.1 4.1 52.7 52.7 0 0 0-.7 8.7 5.2 5.2 0 0 0 0 .7c.5 3 .8 6 1.5 9l.4 1.8.5 1.8a18.3 18.3 0 0 0 .6 1.7l.4.8.4.8.9 1.7.5.8.5.8.5.8.5.8L7.8 77c1.4 2 2.9 4 4.5 5.9a35.6 35.6 0 0 0 2.6 2.7l.7.6.3.3.4.3 1.5 1.1 1 1a34 34 0 0 0 8.2 6.2l1.4.7 1.5.7.7.3.8.3 1.5.6.9.4.8.4.8.4 1 .4 1.9.7 1.9.6 1.6.4 1.6.4 1.6.3h5.7z"/></g><g id="SvgjsG3579" featureKey="symbolFeature-0" transform="matrix(1.2127337257089332,0,0,1.2127337257089332,96.55684679701318,63.16220318593086)" fill="#000000"><title xmlns="http://www.w3.org/2000/svg">x</title><path xmlns="http://www.w3.org/2000/svg" d="M10.71,50.68H10.6A3.57,3.57,0,0,0,8,56.7a3.49,3.49,0,0,0,2.49,1.11h.1a3.57,3.57,0,0,0,.11-7.14Zm-.11,5.19h0a1.67,1.67,0,0,1-1.13-.51,1.63,1.63,0,0,1,1.23-2.73h0a1.62,1.62,0,0,1,1.57,1.67A1.62,1.62,0,0,1,10.6,55.87Z"/><path xmlns="http://www.w3.org/2000/svg" d="M10.53,48.61h.07a2.53,2.53,0,0,0,2.55-2.47,2.57,2.57,0,0,0-2.55-2.62A2.54,2.54,0,0,0,8.06,46a2.54,2.54,0,0,0,2.47,2.62Zm.09-3.34h0a.8.8,0,0,1,0,1.59h0a.81.81,0,0,1-.55-.25A.76.76,0,0,1,9.81,46,.79.79,0,0,1,10.62,45.27Z"/><path xmlns="http://www.w3.org/2000/svg" d="M53.5,50.68h-.1a3.56,3.56,0,0,0-3.57,3.46,3.61,3.61,0,0,0,1,2.56,3.53,3.53,0,0,0,2.49,1.11h.11a3.57,3.57,0,0,0,.1-7.14Zm-.1,5.19h0a1.62,1.62,0,0,1-1.57-1.67,1.63,1.63,0,0,1,1.66-1.57h0a1.59,1.59,0,0,1,1.13.51,1.62,1.62,0,0,1-1.18,2.73Z"/><path xmlns="http://www.w3.org/2000/svg" d="M53.32,48.61h.08a2.55,2.55,0,0,0,1.85-4.29A2.55,2.55,0,0,0,50.85,46a2.51,2.51,0,0,0,.7,1.82A2.48,2.48,0,0,0,53.32,48.61Zm.1-3.34a.81.81,0,0,1,.55.25.78.78,0,0,1,.22.57.79.79,0,0,1-.79.77h0a.83.83,0,0,1-.56-.25.8.8,0,0,1,.6-1.34Z"/><path xmlns="http://www.w3.org/2000/svg" d="M5.49,39.61H4.87a1,1,0,0,0-1,1v19.1H2.19a1,1,0,0,0,0,2H61.81a1,1,0,0,0,0-2h-1.7V40.58a1,1,0,0,0-1-1h-.62V7.86h2.81a1,1,0,0,0,1-1V3.34a1,1,0,0,0-1-1H2.68a1,1,0,0,0-1,1V6.89a1,1,0,0,0,1,1H5.49ZM23.2,13.29a.11.11,0,0,1,.1.06l.46,1.41-3.18,1.05-.47-1.4a.1.1,0,0,1,.06-.13Zm-3.58-.67A1.85,1.85,0,0,0,18.45,15l.74,2.24a.87.87,0,0,0,.83.6.84.84,0,0,0,.27,0l4.86-1.61a.84.84,0,0,0,.5-.44A.83.83,0,0,0,25.7,15L25,12.8a1.88,1.88,0,0,0-2.34-1.17l-.44.14V7.86h8.94v2.85a3.43,3.43,0,1,0,1.76,0V7.86h8.94v3.91l-.44-.14A1.87,1.87,0,0,0,39,12.8L38.3,15a.88.88,0,0,0,.56,1.11l4.85,1.61a.84.84,0,0,0,.27,0,.87.87,0,0,0,.83-.6L45.56,15a1.89,1.89,0,0,0-.11-1.42,1.81,1.81,0,0,0-1.07-.92l-.81-.27V7.86h4.72V39.61h-.63a1,1,0,0,0-1,1v1.53H17.31V40.58a1,1,0,0,0-1-1h-.63V7.86h4.72v4.49ZM32,12.34A1.67,1.67,0,1,1,30.33,14,1.67,1.67,0,0,1,32,12.34Zm11.83,1.94a.13.13,0,0,1,.06.13l-.47,1.4-3.18-1.05.46-1.41s.07-.06.13-.06ZM17.31,59.68V57.85l.91-.36.88.53a1,1,0,0,0,.93,0l1.19-.59,1.55.62a1,1,0,0,0,1.29-1.21l-3-9.08L21.76,46c1.42,3.59,5.47,6.19,10.24,6.19s8.82-2.6,10.24-6.19l.69,1.82-3,9.08a1,1,0,0,0,.26,1,1,1,0,0,0,1,.19l1.55-.62,1.19.59a1,1,0,0,0,.93,0l.88-.53.91.36v1.83Zm2.18-10.43,2.06,6.26h0a1,1,0,0,0-.8,0l-1.1.55-.84-.51A1,1,0,0,0,18,55.5l-.64.25V49.38a4,4,0,0,0,.87.1A3.64,3.64,0,0,0,19.49,49.25Zm26.33.23a4,4,0,0,0,.87-.1v6.37l-.64-.25a1,1,0,0,0-.86.07l-.84.51-1.1-.55a1,1,0,0,0-.79,0h0l2.06-6.26A3.64,3.64,0,0,0,45.82,49.48Zm.87-1.94a1.8,1.8,0,0,1-.87.19,1.68,1.68,0,0,1-.93-.23s-1.36-3.64-1.36-3.64h3.16ZM32,50.23c-4.57,0-8.35-2.8-8.8-6.37H40.8C40.35,47.43,36.57,50.23,32,50.23ZM19.11,47.5a1.68,1.68,0,0,1-.93.23,1.8,1.8,0,0,1-.87-.19V43.86h3.16S19.11,47.48,19.11,47.5ZM13.76,13l-5-5h5Zm0,2.78V21.4l-4-4.1,2.77-2.81Zm0,8.4V29.8l-4.3-4.37,2.77-2.81Zm-6.32,2,4,4.09L8.71,33.07,7.44,31.78Zm5.4,5.48.92.94V38.2l-3.69-3.74Zm37.4.14V26.16l4,4.09L51.5,33.07Zm0-8.4V17.76l3.42,3.47L50.89,24Zm0-8.4V9.36l3.68,3.74-2.77,2.81Zm0,19.58,5,5h-5Zm2.63-.1,2.77-2.82.92.94V38.2Zm-.61-9L55,22.62l1.53,1.56V29.8Zm.26-8.13,2.77-2.81,1.27,1.29V21.4Zm4-4.3-5-5h5Zm-45.44.1L8.36,15.91,7.44,15V9.36Zm-.26,8.13L8.1,24l-.66-.66V17.76ZM7.44,34.56l5,5h-5ZM5.84,59.68V41.56h9.52V59.68Zm42.8,0V41.56h9.52V59.68ZM3.66,4.32H60.34V5.91H3.66Z"/><path xmlns="http://www.w3.org/2000/svg" d="M26.85,47.57a16.63,16.63,0,0,0,5.28,1.11A14.42,14.42,0,0,0,37,47.59a1,1,0,0,0-.66-1.83,12.67,12.67,0,0,1-4.24,1,14.78,14.78,0,0,1-4.66-1,1,1,0,0,0-1.24.62A1,1,0,0,0,26.85,47.57Z"/></g><g id="SvgjsG3580" featureKey="nameFeature-0" transform="matrix(1.316396961898186,0,0,1.316396961898186,34.062522911305,144.2041604419057)" fill="#000000"><path d="M3.88 21.2 c0.4 0.56 0.84 1.08 1.32 1.6 c0.36 0.44 0.8 0.72 1.28 0.96 c0.36 0.12 0.68 0.28 1 0.44 c0.56 0.36 1.04 0.72 1.48 1.16 c0.4 0.4 0.8 0.84 1.24 1.16 c0.12 0.12 0.2 0.24 0.36 0.36 l0.32 0 c0.12 0.04 0.2 0.08 0.28 0.16 c0.28 0.28 0.48 0.6 0.56 1 c0.04 0.32 0.12 0.64 0.24 0.96 c0.12 0.4 0.16 0.84 0.2 1.28 l0 1.16 c0 0.2 0 0.44 0.12 0.64 c0.04 0.08 0.04 0.2 0.04 0.32 c0.04 0.24 0.04 0.48 0.08 0.68 c0.08 0.56 0.08 1.08 -0.04 1.64 c-0.04 0.08 -0.04 0.2 -0.04 0.32 c-0.04 0.08 -0.04 0.2 -0.08 0.32 c-0.16 0.4 -0.24 0.84 -0.4 1.28 c0 0.04 -0.04 0.12 -0.08 0.16 c-0.2 0.28 -0.36 0.6 -0.56 0.88 c-0.08 0.12 -0.16 0.24 -0.28 0.36 c-0.32 0.08 -0.64 0.2 -0.96 0.4 c-0.08 0.08 -0.2 0.12 -0.36 0.12 c-0.12 0 -0.28 0.04 -0.44 0.04 c-0.24 0.04 -0.4 0.12 -0.56 0.32 s-0.36 0.28 -0.6 0.32 l-0.2 0 c-0.24 0.04 -0.52 0.12 -0.76 0.12 c-0.28 0 -0.52 -0.08 -0.76 -0.12 l-0.4 0 c-0.24 0 -0.48 -0.04 -0.68 -0.16 c-0.36 -0.16 -0.76 -0.28 -1.12 -0.36 c-0.28 -0.08 -0.52 -0.2 -0.76 -0.36 s-0.48 -0.32 -0.72 -0.44 c-0.6 -0.32 -1 -0.88 -1.36 -1.48 c-0.04 -0.2 -0.12 -0.4 -0.12 -0.6 c-0.04 -0.4 -0.16 -0.76 -0.2 -1.16 c-0.12 -0.6 -0.24 -1.2 -0.2 -1.8 c0.04 -0.2 0.04 -0.4 0.08 -0.6 c0.04 -0.28 0.08 -0.56 0.08 -0.84 c0 -0.16 0 -0.32 0.04 -0.48 c0.12 -0.28 0.08 -0.52 0.04 -0.76 c-0.08 -0.24 -0.12 -0.44 -0.2 -0.68 c0.08 -0.2 0.16 -0.4 0.24 -0.64 c0.04 -0.12 0.16 -0.2 0.28 -0.2 l0.48 0 c0.44 -0.04 0.92 -0.04 1.36 -0.04 c0.2 0 0.32 0.08 0.44 0.2 c0.08 0.08 0.12 0.16 0.12 0.24 c-0.04 0.24 0 0.44 0.2 0.6 c0.08 0.08 0.12 0.2 0.08 0.36 c-0.04 0.08 -0.08 0.2 -0.12 0.32 c-0.08 0.2 -0.12 0.44 -0.08 0.68 c0.08 0.24 0.04 0.52 0.08 0.76 c0 0.28 -0.04 0.52 0.08 0.8 c0.04 0.12 0.04 0.24 0 0.36 c-0.12 0.36 -0.08 0.68 -0.04 1.04 c0 0.16 0.08 0.32 0.24 0.44 c0.36 0.32 0.72 0.6 1.2 0.76 c0.12 0.04 0.28 0.12 0.4 0.16 c0.2 0.08 0.4 0.12 0.64 0.12 c0.16 0 0.36 0 0.52 0.08 c0.56 0.12 1.08 0.04 1.6 -0.16 c0.2 -0.04 0.4 -0.16 0.6 -0.24 c0.16 -0.44 0.32 -0.84 0.28 -1.32 l0 -2.84 l0 -0.4 c0 -0.28 -0.08 -0.52 -0.36 -0.64 c-0.08 -0.08 -0.16 -0.16 -0.2 -0.28 c-0.08 -0.36 -0.32 -0.64 -0.6 -0.88 c-0.52 -0.48 -1 -0.96 -1.52 -1.44 c-0.12 -0.08 -0.2 -0.2 -0.36 -0.24 c-0.16 0 -0.36 -0.08 -0.48 -0.16 c-0.28 -0.16 -0.56 -0.24 -0.88 -0.32 c-0.8 -0.2 -1.52 -0.56 -2.12 -1.12 c-0.52 -0.48 -0.84 -1.04 -1.16 -1.56 c-0.16 -0.24 -0.28 -0.52 -0.4 -0.76 c-0.2 -0.36 -0.24 -0.8 -0.36 -1.16 c-0.04 -0.08 0 -0.16 0 -0.2 c0.08 -0.28 0.12 -0.52 -0.04 -0.76 c-0.04 -0.48 -0.16 -0.92 -0.12 -1.4 c0.04 -0.44 0.08 -0.88 0.04 -1.32 l0 -0.16 c0.12 -0.32 0.12 -0.6 0.12 -0.92 l0 -1.88 c-0.04 -0.4 0.08 -0.76 0.32 -1.08 c0.08 -0.12 0.12 -0.2 0.2 -0.28 c0.28 -0.36 0.6 -0.76 0.92 -1.12 c0.04 -0.08 0.12 -0.12 0.24 -0.2 c0.36 -0.16 0.64 -0.4 0.96 -0.64 c0.24 -0.2 0.52 -0.36 0.84 -0.48 c0.28 -0.08 0.52 -0.24 0.8 -0.24 c0.12 0 0.24 -0.04 0.4 -0.04 c0.32 0 0.64 -0.04 0.96 -0.08 c0.2 -0.04 0.44 0 0.64 0.04 c0.36 0.04 0.68 0.08 1.04 0.08 c0.24 0.04 0.52 0.04 0.76 0.12 c0.2 0.04 0.4 0.16 0.6 0.28 c0.32 0.2 0.56 0.52 0.76 0.84 c0.16 0.24 0.28 0.48 0.48 0.68 c0.12 0.16 0.24 0.32 0.28 0.52 c0.04 0.12 0.08 0.24 0.16 0.36 c0.12 0.36 0.24 0.72 0.28 1.12 c0.04 0.16 0.08 0.32 0.08 0.44 c0.04 0.32 0.16 0.6 0.4 0.8 c0.12 0.08 0.12 0.16 0.12 0.28 c0 0.48 0 0.96 -0.04 1.44 c-0.08 0.36 -0.08 0.72 -0.08 1.08 c0 0.52 -0.04 1 -0.16 1.48 c-0.04 0.2 -0.04 0.36 0 0.52 c0.04 0.12 0.04 0.2 0.04 0.32 c0 0.08 0 0.12 -0.04 0.2 c-0.16 0.16 -0.32 0.28 -0.52 0.36 c-0.44 0.12 -0.88 0.2 -1.36 0.28 c-0.04 0.04 -0.12 0 -0.16 -0.04 c-0.12 -0.12 -0.28 -0.28 -0.4 -0.44 c0 -0.04 -0.04 -0.12 -0.04 -0.16 c-0.04 -0.28 -0.08 -0.52 -0.08 -0.8 c0.04 -0.36 0 -0.72 0 -1.08 c0 -0.28 0.04 -0.56 -0.04 -0.84 c-0.04 -0.04 -0.04 -0.08 -0.04 -0.12 c0.08 -0.72 -0.12 -1.44 -0.28 -2.12 c0 -0.04 0 -0.08 -0.04 -0.12 c-0.2 -0.36 -0.36 -0.8 -0.68 -1.12 c-0.2 -0.24 -0.44 -0.48 -0.68 -0.68 c-0.28 -0.24 -0.6 -0.36 -0.88 -0.52 l-0.2 0 c-0.44 0 -0.84 0.16 -1.24 0.36 c-0.08 0.04 -0.12 0.12 -0.2 0.16 l-0.56 0.56 s-0.4 0.4 -0.44 0.68 c0 0.12 -0.04 0.2 -0.04 0.28 c-0.04 0.08 -0.08 0.2 -0.04 0.32 c0.04 0.32 -0.16 0.68 -0.12 1 l0 2.88 c0 0.16 0.04 0.32 0.04 0.52 z M19.366 39.72 l-0.36 -0.12 s-0.24 -0.04 -0.32 0 s-0.2 0.04 -0.28 0.04 c-0.6 -0.08 -1.32 -0.24 -1.8 -0.8 c-0.04 0 -0.08 -0.04 -0.12 -0.08 c-0.64 -0.4 -1.04 -1 -1.6 -1.52 c-0.2 -0.16 -0.32 -0.36 -0.44 -0.56 c-0.08 -0.16 -0.16 -0.36 -0.2 -0.52 c-0.12 -0.28 -0.2 -0.56 -0.2 -0.84 c0.04 -0.2 -0.04 -0.4 -0.08 -0.6 c-0.08 -0.28 -0.12 -0.56 -0.2 -0.84 c-0.2 -0.68 -0.28 -1.36 -0.44 -2.04 c-0.08 -0.36 -0.08 -0.72 -0.08 -1.08 c0 -1.24 -0.04 -2.48 -0.04 -3.72 s0.04 -2.48 0.04 -3.76 l0 -1.8 c0.04 -0.28 0 -0.56 -0.16 -0.8 c-0.04 -0.08 -0.04 -0.2 -0.04 -0.32 c0.04 -0.08 0.04 -0.12 0.04 -0.2 c0.08 -0.44 0.08 -0.88 -0.04 -1.32 c-0.04 -0.2 -0.04 -0.4 0 -0.6 c0.08 -0.36 0.12 -0.68 0 -1 l0 -0.28 c0.04 -0.12 0.04 -0.2 0.08 -0.32 c0.12 -0.28 0.16 -0.6 0.16 -0.92 c0 -0.24 0.04 -0.48 0.16 -0.72 c0.2 -0.48 0.52 -0.88 0.72 -1.36 c0.04 -0.08 0.08 -0.16 0.16 -0.2 c0.4 -0.44 0.8 -0.88 1.28 -1.2 c0.32 -0.2 0.6 -0.44 0.92 -0.68 c0.16 -0.16 0.36 -0.24 0.6 -0.28 c0.32 -0.08 0.6 -0.12 0.92 -0.2 c0.16 -0.08 0.32 -0.08 0.44 -0.08 c0.16 -0.04 0.32 -0.04 0.48 -0.08 c0.12 -0.04 0.28 -0.04 0.4 0.04 c0.04 0.04 0.12 0.04 0.16 0.08 c0.2 0.12 0.44 0.16 0.68 0.16 l0.4 0 s0.28 0.04 0.4 0.16 c0.04 0.04 0.08 0.08 0.12 0.08 c0.12 0.16 0.28 0.24 0.44 0.28 c0.44 0.16 0.72 0.44 1 0.8 c0.16 0.24 0.36 0.52 0.6 0.72 c0.08 0.08 0.16 0.2 0.2 0.32 c0.12 0.28 0.24 0.52 0.32 0.84 c0.04 0.2 0.16 0.4 0.24 0.6 c0.12 0.24 0.2 0.52 0.24 0.76 c0 0.36 0.08 0.72 0.16 1.08 c0.08 0.32 0.12 0.68 0.12 1 c-0.04 0.32 0 0.64 0.12 0.92 c0.04 0.12 0.04 0.24 0.04 0.32 c0.04 0.2 0.04 0.4 -0.08 0.52 c-0.08 0.12 -0.08 0.28 -0.08 0.4 l0 0.72 l0 13.24 c0.04 0.6 -0.12 1.2 -0.36 1.76 l-0.84 1.92 c-0.08 0.12 -0.16 0.2 -0.24 0.32 c-0.36 0.52 -0.92 0.84 -1.4 1.2 c-0.2 0.16 -0.4 0.24 -0.64 0.28 c-0.12 0 -0.28 0.04 -0.4 0.04 c-0.4 0 -0.8 0.12 -1.2 0.24 z M16.366 26.52 l0 4.48 l0 0.68 c0 0.12 0 0.24 0.04 0.32 c0.16 0.28 0.2 0.56 0.24 0.84 c0.04 0.12 0.08 0.28 0.12 0.4 c0.16 0.4 0.32 0.76 0.48 1.16 c0.08 0.16 0.16 0.36 0.24 0.48 c0.28 0.32 0.56 0.64 0.8 0.92 c0.32 0.36 0.76 0.48 1.24 0.44 c0.36 -0.04 0.64 -0.16 0.8 -0.52 c0.04 -0.08 0.04 -0.16 0.08 -0.24 c0 -0.36 0.12 -0.72 0.24 -1.08 c0.08 -0.28 0.16 -0.56 0.16 -0.84 c0 -0.2 0.08 -0.4 0.12 -0.6 c0.24 -0.56 0.32 -1.16 0.36 -1.76 c0 -0.44 0 -0.84 0.04 -1.28 c0 -0.16 0 -0.32 -0.08 -0.48 c-0.04 -0.08 -0.04 -0.2 0 -0.32 c0.12 -0.52 0.08 -1.04 0.04 -1.56 c-0.08 -0.76 -0.04 -1.56 -0.04 -2.32 c0 -1.48 0.04 -2.92 0.04 -4.4 c0.04 -0.24 0.04 -0.44 -0.04 -0.68 c-0.04 -0.08 -0.04 -0.2 -0.04 -0.32 c-0.04 -0.56 -0.12 -1.12 -0.24 -1.68 s-0.24 -1.12 -0.24 -1.72 c0 -0.28 -0.12 -0.56 -0.24 -0.84 c-0.08 -0.16 -0.2 -0.28 -0.28 -0.44 c-0.08 -0.2 -0.24 -0.32 -0.44 -0.4 c-0.08 -0.08 -0.2 -0.12 -0.28 -0.16 c-0.6 -0.2 -1.12 -0.16 -1.6 0.24 c-0.28 0.24 -0.52 0.48 -0.76 0.76 c-0.16 0.12 -0.24 0.32 -0.28 0.52 c-0.08 0.4 -0.16 0.84 -0.24 1.24 l0 0.2 c0 0.2 -0.04 0.4 0 0.6 c0 0.24 -0.16 0.44 -0.2 0.68 l0 0.04 c-0.04 0.52 -0.12 1.04 -0.16 1.56 c-0.04 0.36 -0.04 0.76 0.04 1.12 c0.04 0.12 0.04 0.24 0.04 0.36 c0 1.56 -0.04 3.16 0.04 4.6 z M27.692 11.68 c0.12 -0.04 0.24 -0.04 0.36 -0.12 c0.52 -0.24 1.04 -0.2 1.6 -0.2 c0.12 0.04 0.24 0.04 0.32 0.08 c0.24 0.04 0.4 0.16 0.44 0.44 c0.08 0.28 0.12 0.56 0.12 0.84 c0.04 0.6 0.16 1.16 0.12 1.76 c0.08 1.08 0 2.12 0.04 3.2 c0 0.2 0.04 0.44 0.04 0.64 s0.04 0.4 0.04 0.6 l0 3.84 c0 0.28 0.04 0.52 0.04 0.8 l0 0.68 l0 5.36 l0 0.44 c0 0.16 0.04 0.32 0.12 0.48 c0.16 0.24 0.2 0.56 0.24 0.88 c0 0.12 0.04 0.24 0.12 0.36 c0.2 0.44 0.36 0.88 0.52 1.36 c0.12 0.32 0.28 0.6 0.52 0.84 c0.24 0.28 0.44 0.52 0.68 0.8 c0.08 0.08 0.16 0.16 0.24 0.2 c0.2 0.16 0.44 0.28 0.68 0.28 c0.36 0.04 0.76 0.04 1.08 -0.12 c0.08 -0.04 0.16 -0.12 0.2 -0.2 c0.12 -0.16 0.2 -0.32 0.24 -0.52 c0.04 -0.44 0.16 -0.88 0.28 -1.28 c0.12 -0.28 0.16 -0.52 0.16 -0.8 c0.04 -0.28 0.12 -0.6 0.24 -0.88 c0.24 -0.76 0.36 -1.56 0.36 -2.36 l0 -0.84 l0 -0.6 c-0.16 -0.28 -0.04 -0.52 0 -0.76 c0.04 -0.56 0.04 -1.08 0 -1.6 c-0.08 -0.96 -0.04 -1.96 -0.04 -2.92 c0 -1.76 0.04 -3.48 0.04 -5.24 c0 -1.12 0.04 -2.24 0.08 -3.36 c0 -0.32 0.04 -0.64 0.12 -0.92 c0.04 -0.24 0.04 -0.48 0.08 -0.72 c0.04 -0.08 0.08 -0.16 0.2 -0.2 c0.08 0 0.16 0 0.24 -0.04 c0.64 -0.32 1.28 -0.24 1.96 -0.2 c0.16 0 0.28 0.08 0.44 0.12 c0.08 0 0.16 0.08 0.16 0.16 c0.12 0.68 0.24 1.32 0.24 1.96 c0 1.36 0.04 2.72 0.04 4.04 c0.04 5 0 9.96 0 14.92 c0 0.84 0.04 0.84 -0.28 1.56 c-0.36 0.84 -0.72 1.64 -1.08 2.48 c-0.04 0.04 -0.04 0.08 -0.08 0.12 c0 0.04 -0.04 0.08 -0.08 0.12 c-0.28 0.16 -0.36 0.52 -0.64 0.72 c-0.36 0.2 -0.68 0.48 -1.04 0.72 c-0.24 0.2 -0.52 0.32 -0.84 0.36 c-0.28 0 -0.6 0.12 -0.92 0.12 c-0.16 0 -0.32 0.08 -0.48 0.12 c-0.24 0.08 -0.44 0.08 -0.68 -0.04 c-0.16 -0.08 -0.32 -0.08 -0.48 0 s-0.32 0.04 -0.48 0 c-0.28 -0.04 -0.6 -0.12 -0.88 -0.24 c-0.36 -0.12 -0.72 -0.32 -1 -0.64 c-0.04 -0.04 -0.12 -0.12 -0.2 -0.16 c-0.28 -0.16 -0.48 -0.36 -0.68 -0.6 c-0.28 -0.32 -0.56 -0.6 -0.88 -0.88 c-0.28 -0.28 -0.48 -0.6 -0.72 -0.88 l-0.04 -0.04 c-0.08 -0.48 -0.36 -0.88 -0.36 -1.32 c0 -0.28 -0.04 -0.56 -0.12 -0.8 c-0.08 -0.4 -0.2 -0.76 -0.28 -1.16 c-0.28 -0.92 -0.32 -1.88 -0.56 -2.8 c0 -0.36 -0.04 -0.72 -0.04 -1.12 c0 -2.6 0 -5.24 0.04 -7.88 c0 -0.4 0 -0.84 0.04 -1.24 c0 -0.92 0.04 -1.8 0.04 -2.72 c0 -1.2 0.04 -2.36 0.16 -3.56 c0.04 -0.36 0.08 -0.76 0.12 -1.12 c0 -0.12 0.08 -0.2 0.08 -0.32 z M43.058 11.48 c0.6 -0.28 1.2 -0.4 1.84 -0.4 c0.16 0 0.36 0 0.56 0.04 c0.16 0.04 0.24 0.12 0.28 0.28 c0.08 0.16 0.12 0.28 0.16 0.44 c0.08 0.36 0.12 0.72 0.2 1.08 c0.04 0.12 0.08 0.24 0.12 0.4 c0.08 0.12 0.16 0.24 0.2 0.36 c0.16 0.68 0.36 1.32 0.52 2 c0.12 0.4 0.24 0.8 0.44 1.2 c0.28 0.56 0.56 1.12 0.84 1.72 c0.24 0.52 0.52 1.04 0.76 1.6 c0.32 0.64 0.6 1.32 0.92 2 c0.12 0.28 0.32 0.56 0.48 0.88 c0.52 0.92 0.92 1.88 1.2 2.92 c0.04 0.2 0.12 0.4 0.2 0.6 c0.44 1.04 0.88 2.04 1.32 3.04 c0.16 0.32 0.32 0.6 0.52 0.88 c0.24 0.32 0.48 0.68 0.68 1.04 c0.12 0.24 0.28 0.4 0.4 0.6 c0.04 0.04 0.08 0.04 0.12 0.08 c0.04 0 0.12 -0.08 0.12 -0.16 l0 -0.72 l0 -19.72 l0 -0.72 c0 -0.08 0.04 -0.16 0.08 -0.24 c0.76 -0.2 1.52 -0.2 2.28 -0.2 c0.08 0 0.16 0.04 0.28 0.04 c0.36 0.12 0.48 0.12 0.52 0.6 c0.08 0.88 0.04 1.76 0.04 2.64 l0 2.84 c0.04 0.28 0 0.56 0 0.84 c0 0.56 0.04 1.12 0 1.72 c0 0.56 0.04 1.16 0 1.76 l0 1.68 l0 1.8 l0 2.2 c0 0.8 -0.04 1.64 -0.04 2.44 c0 0.36 0 0.68 -0.04 1 c0 1.44 0 2.84 -0.04 4.28 c0 0.52 -0.04 1.04 -0.08 1.56 l0 0.28 c-0.04 0.52 0.12 0.96 0.6 1.24 c0.24 0.12 0.32 0.28 0.32 0.52 c0.04 0.12 0.04 0.28 0.04 0.4 c0 0.16 -0.08 0.24 -0.16 0.32 c-0.28 0.2 -0.48 0.52 -0.68 0.8 c-0.08 0.16 -0.16 0.28 -0.28 0.4 c-0.24 0.2 -0.48 0.32 -0.76 0.28 c-0.12 -0.04 -0.2 0 -0.28 0 c-0.28 0 -0.48 -0.12 -0.64 -0.32 c-0.2 -0.24 -0.44 -0.48 -0.64 -0.72 c-0.16 -0.16 -0.28 -0.36 -0.36 -0.52 c-0.28 -0.6 -0.64 -1.2 -1 -1.72 c-0.2 -0.28 -0.4 -0.56 -0.6 -0.8 c-0.28 -0.24 -0.52 -0.56 -0.72 -0.88 c-0.16 -0.2 -0.32 -0.4 -0.44 -0.64 c-0.12 -0.16 -0.24 -0.32 -0.36 -0.52 c-0.2 -0.44 -0.44 -0.84 -0.72 -1.2 s-0.52 -0.76 -0.72 -1.16 c-0.32 -0.56 -0.6 -1.12 -0.84 -1.72 c-0.12 -0.44 -0.32 -0.84 -0.52 -1.24 c-0.36 -0.76 -0.68 -1.56 -0.92 -2.36 c-0.12 -0.44 -0.32 -0.84 -0.52 -1.24 c-0.48 -0.88 -0.92 -1.72 -1.28 -2.64 c-0.04 -0.12 -0.12 -0.24 -0.2 -0.36 l-0.04 0 l-0.08 0 l0 0.56 l0 7.48 c-0.04 2 -0.04 4.04 -0.08 6.08 c0 0.76 -0.04 1.52 -0.16 2.28 c-0.04 0.16 -0.04 0.32 -0.04 0.48 c-0.04 0.2 -0.16 0.36 -0.36 0.44 c-0.52 0.2 -1.04 0.24 -1.6 0.16 c-0.16 0 -0.36 -0.08 -0.52 -0.12 c-0.12 -0.04 -0.16 -0.12 -0.16 -0.24 c-0.04 -0.12 -0.04 -0.24 -0.08 -0.36 c0 -0.16 0 -0.32 -0.04 -0.48 c-0.08 -0.64 -0.12 -1.28 -0.16 -1.92 l0 -0.96 c-0.04 -0.4 -0.04 -0.8 -0.04 -1.24 l0 -20.28 c0 -0.44 0.04 -0.88 -0.08 -1.32 c-0.04 -0.08 0 -0.2 0.04 -0.28 c0.12 -0.28 0.16 -0.56 0.2 -0.88 z M62.744 14.96 c-0.12 -0.52 -0.16 -1 -0.16 -1.48 c0 -0.24 -0.04 -0.52 0 -0.8 c0.08 -0.52 0.16 -0.64 0.72 -0.68 c0.16 -0.04 0.32 -0.04 0.44 0 c0.76 0 1.52 -0.08 2.24 -0.32 c0.08 0 0.16 -0.04 0.2 -0.04 c0.48 -0.04 0.92 -0.08 1.4 -0.12 c0.2 0 0.4 0 0.56 0.04 c0.32 0 0.6 0.04 0.88 0.08 c0.12 0.04 0.24 0.04 0.36 0.08 c0.44 0.12 0.88 0.24 1.36 0.2 c0.24 0 0.48 0.04 0.72 0.16 c0.16 0.08 0.36 0.16 0.52 0.2 c0.16 0.08 0.32 0.12 0.48 0.2 c0.48 0.28 0.92 0.6 1.4 0.92 c0.12 0.08 0.2 0.2 0.28 0.32 c0.32 0.36 0.64 0.76 1 1.08 c0.2 0.16 0.32 0.36 0.44 0.56 c0.32 0.44 0.6 0.92 0.76 1.48 c0.12 0.36 0.24 0.72 0.32 1.12 c0 0.2 0.08 0.36 0.16 0.56 c0.04 0.12 0.08 0.24 0.08 0.36 c0.04 0.72 0.16 1.44 0.28 2.16 l0 0.08 c-0.04 0.76 0.16 1.52 0.16 2.32 c0.04 0.72 0.08 1.44 0.2 2.16 c0.04 0.24 0.12 0.48 0.16 0.72 c0 0.16 0.04 0.32 0.04 0.52 c0.04 0.48 0.08 0.96 0.08 1.44 c0 0.52 -0.04 1.04 -0.04 1.52 c0 0.52 -0.08 1.04 -0.16 1.52 c-0.08 0.6 -0.08 1.16 -0.24 1.76 l0 0.36 c0 0.24 -0.04 0.48 -0.16 0.68 c-0.08 0.24 -0.16 0.48 -0.2 0.72 c0 0.12 -0.04 0.28 -0.12 0.4 c-0.12 0.28 -0.16 0.56 -0.16 0.88 c0 0.2 -0.08 0.36 -0.2 0.52 c-0.16 0.2 -0.28 0.44 -0.36 0.72 c-0.08 0.24 -0.28 0.4 -0.44 0.56 c0 0.04 -0.04 0.08 -0.12 0.12 c-0.28 0.08 -0.52 0.28 -0.76 0.52 c-0.04 0.04 -0.16 0.08 -0.28 0.08 c-0.24 0 -0.44 0.04 -0.68 0.12 c-0.64 0.08 -1.28 0.28 -1.96 0.28 c-0.6 0.04 -1.2 0.04 -1.8 0 c-1.08 -0.04 -2.12 0 -3.16 0 c-0.12 0 -0.24 0 -0.36 0.04 l-0.2 0 c-0.56 0 -1.08 -0.04 -1.6 -0.08 c-0.08 -0.04 -0.2 -0.08 -0.28 -0.12 c-0.16 -0.24 -0.44 -0.28 -0.68 -0.4 c-0.08 -0.04 -0.16 -0.12 -0.16 -0.24 c0.04 -0.48 0 -1 0.2 -1.48 c0.04 -0.16 0.12 -0.32 0.16 -0.48 c0.12 -0.28 0.32 -0.36 0.6 -0.4 c0.2 -0.04 0.44 0 0.64 0.08 c0.08 0 0.2 -0.08 0.2 -0.16 c0.04 -0.24 0.04 -0.44 0.04 -0.68 l0 -7.48 l0 -8.56 l0 -3.48 c0 -0.16 0 -0.32 -0.04 -0.44 c0 -0.08 -0.08 -0.12 -0.16 -0.16 c-0.32 -0.04 -0.64 -0.04 -0.92 0.04 c-0.36 0.12 -0.72 0.12 -1.08 0 c-0.16 -0.08 -0.4 -0.08 -0.6 -0.08 z M68.624 14.8 c0 0.08 -0.04 0.12 -0.04 0.2 l0 0.68 l0 19.36 l0 0.52 l0 0.24 c0.04 0.08 0.12 0.16 0.2 0.16 l0.44 0 c0.64 0.04 1.24 0 1.84 0.04 c0.48 0 0.92 -0.08 1.36 -0.16 c0.28 -0.04 0.56 -0.16 0.84 -0.24 c0.16 -0.08 0.24 -0.16 0.24 -0.32 c0.04 -0.32 0.12 -0.6 0.24 -0.84 c0.12 -0.28 0.16 -0.56 0.24 -0.84 c0.04 -0.12 0.08 -0.2 0.12 -0.28 c0.12 -0.2 0.16 -0.4 0.2 -0.6 c0.08 -0.48 0.12 -0.92 0.2 -1.4 c0.2 -1.2 0.2 -2.4 0.2 -3.6 c0 -0.4 -0.04 -0.8 -0.16 -1.16 c-0.08 -0.16 -0.08 -0.32 -0.12 -0.48 c-0.04 -0.4 -0.04 -0.8 -0.12 -1.16 c-0.04 -0.16 -0.04 -0.36 -0.04 -0.52 c0.04 -0.6 0 -1.16 -0.08 -1.76 c-0.04 -0.24 -0.04 -0.52 -0.08 -0.8 c0 -0.12 0 -0.28 -0.04 -0.4 c-0.08 -0.68 -0.2 -1.36 -0.32 -2.04 c-0.08 -0.64 -0.32 -1.2 -0.52 -1.8 c-0.04 -0.2 -0.16 -0.36 -0.28 -0.52 c-0.28 -0.28 -0.56 -0.6 -0.8 -0.92 c-0.24 -0.28 -0.48 -0.48 -0.8 -0.64 c-0.4 -0.28 -0.8 -0.4 -1.28 -0.52 c-0.2 -0.04 -0.4 -0.08 -0.64 -0.12 s-0.52 -0.12 -0.8 -0.08 z M83.50999999999999 21.2 c0.4 0.56 0.84 1.08 1.32 1.6 c0.36 0.44 0.8 0.72 1.28 0.96 c0.36 0.12 0.68 0.28 1 0.44 c0.56 0.36 1.04 0.72 1.48 1.16 c0.4 0.4 0.8 0.84 1.24 1.16 c0.12 0.12 0.2 0.24 0.36 0.36 l0.32 0 c0.12 0.04 0.2 0.08 0.28 0.16 c0.28 0.28 0.48 0.6 0.56 1 c0.04 0.32 0.12 0.64 0.24 0.96 c0.12 0.4 0.16 0.84 0.2 1.28 l0 1.16 c0 0.2 0 0.44 0.12 0.64 c0.04 0.08 0.04 0.2 0.04 0.32 c0.04 0.24 0.04 0.48 0.08 0.68 c0.08 0.56 0.08 1.08 -0.04 1.64 c-0.04 0.08 -0.04 0.2 -0.04 0.32 c-0.04 0.08 -0.04 0.2 -0.08 0.32 c-0.16 0.4 -0.24 0.84 -0.4 1.28 c0 0.04 -0.04 0.12 -0.08 0.16 c-0.2 0.28 -0.36 0.6 -0.56 0.88 c-0.08 0.12 -0.16 0.24 -0.28 0.36 c-0.32 0.08 -0.64 0.2 -0.96 0.4 c-0.08 0.08 -0.2 0.12 -0.36 0.12 c-0.12 0 -0.28 0.04 -0.44 0.04 c-0.24 0.04 -0.4 0.12 -0.56 0.32 s-0.36 0.28 -0.6 0.32 l-0.2 0 c-0.24 0.04 -0.52 0.12 -0.76 0.12 c-0.28 0 -0.52 -0.08 -0.76 -0.12 l-0.4 0 c-0.24 0 -0.48 -0.04 -0.68 -0.16 c-0.36 -0.16 -0.76 -0.28 -1.12 -0.36 c-0.28 -0.08 -0.52 -0.2 -0.76 -0.36 s-0.48 -0.32 -0.72 -0.44 c-0.6 -0.32 -1 -0.88 -1.36 -1.48 c-0.04 -0.2 -0.12 -0.4 -0.12 -0.6 c-0.04 -0.4 -0.16 -0.76 -0.2 -1.16 c-0.12 -0.6 -0.24 -1.2 -0.2 -1.8 c0.04 -0.2 0.04 -0.4 0.08 -0.6 c0.04 -0.28 0.08 -0.56 0.08 -0.84 c0 -0.16 0 -0.32 0.04 -0.48 c0.12 -0.28 0.08 -0.52 0.04 -0.76 c-0.08 -0.24 -0.12 -0.44 -0.2 -0.68 c0.08 -0.2 0.16 -0.4 0.24 -0.64 c0.04 -0.12 0.16 -0.2 0.28 -0.2 l0.48 0 c0.44 -0.04 0.92 -0.04 1.36 -0.04 c0.2 0 0.32 0.08 0.44 0.2 c0.08 0.08 0.12 0.16 0.12 0.24 c-0.04 0.24 0 0.44 0.2 0.6 c0.08 0.08 0.12 0.2 0.08 0.36 c-0.04 0.08 -0.08 0.2 -0.12 0.32 c-0.08 0.2 -0.12 0.44 -0.08 0.68 c0.08 0.24 0.04 0.52 0.08 0.76 c0 0.28 -0.04 0.52 0.08 0.8 c0.04 0.12 0.04 0.24 0 0.36 c-0.12 0.36 -0.08 0.68 -0.04 1.04 c0 0.16 0.08 0.32 0.24 0.44 c0.36 0.32 0.72 0.6 1.2 0.76 c0.12 0.04 0.28 0.12 0.4 0.16 c0.2 0.08 0.4 0.12 0.64 0.12 c0.16 0 0.36 0 0.52 0.08 c0.56 0.12 1.08 0.04 1.6 -0.16 c0.2 -0.04 0.4 -0.16 0.6 -0.24 c0.16 -0.44 0.32 -0.84 0.28 -1.32 l0 -2.84 l0 -0.4 c0 -0.28 -0.08 -0.52 -0.36 -0.64 c-0.08 -0.08 -0.16 -0.16 -0.2 -0.28 c-0.08 -0.36 -0.32 -0.64 -0.6 -0.88 c-0.52 -0.48 -1 -0.96 -1.52 -1.44 c-0.12 -0.08 -0.2 -0.2 -0.36 -0.24 c-0.16 0 -0.36 -0.08 -0.48 -0.16 c-0.28 -0.16 -0.56 -0.24 -0.88 -0.32 c-0.8 -0.2 -1.52 -0.56 -2.12 -1.12 c-0.52 -0.48 -0.84 -1.04 -1.16 -1.56 c-0.16 -0.24 -0.28 -0.52 -0.4 -0.76 c-0.2 -0.36 -0.24 -0.8 -0.36 -1.16 c-0.04 -0.08 0 -0.16 0 -0.2 c0.08 -0.28 0.12 -0.52 -0.04 -0.76 c-0.04 -0.48 -0.16 -0.92 -0.12 -1.4 c0.04 -0.44 0.08 -0.88 0.04 -1.32 l0 -0.16 c0.12 -0.32 0.12 -0.6 0.12 -0.92 l0 -1.88 c-0.04 -0.4 0.08 -0.76 0.32 -1.08 c0.08 -0.12 0.12 -0.2 0.2 -0.28 c0.28 -0.36 0.6 -0.76 0.92 -1.12 c0.04 -0.08 0.12 -0.12 0.24 -0.2 c0.36 -0.16 0.64 -0.4 0.96 -0.64 c0.24 -0.2 0.52 -0.36 0.84 -0.48 c0.28 -0.08 0.52 -0.24 0.8 -0.24 c0.12 0 0.24 -0.04 0.4 -0.04 c0.32 0 0.64 -0.04 0.96 -0.08 c0.2 -0.04 0.44 0 0.64 0.04 c0.36 0.04 0.68 0.08 1.04 0.08 c0.24 0.04 0.52 0.04 0.76 0.12 c0.2 0.04 0.4 0.16 0.6 0.28 c0.32 0.2 0.56 0.52 0.76 0.84 c0.16 0.24 0.28 0.48 0.48 0.68 c0.12 0.16 0.24 0.32 0.28 0.52 c0.04 0.12 0.08 0.24 0.16 0.36 c0.12 0.36 0.24 0.72 0.28 1.12 c0.04 0.16 0.08 0.32 0.08 0.44 c0.04 0.32 0.16 0.6 0.4 0.8 c0.12 0.08 0.12 0.16 0.12 0.28 c0 0.48 0 0.96 -0.04 1.44 c-0.08 0.36 -0.08 0.72 -0.08 1.08 c0 0.52 -0.04 1 -0.16 1.48 c-0.04 0.2 -0.04 0.36 0 0.52 c0.04 0.12 0.04 0.2 0.04 0.32 c0 0.08 0 0.12 -0.04 0.2 c-0.16 0.16 -0.32 0.28 -0.52 0.36 c-0.44 0.12 -0.88 0.2 -1.36 0.28 c-0.04 0.04 -0.12 0 -0.16 -0.04 c-0.12 -0.12 -0.28 -0.28 -0.4 -0.44 c0 -0.04 -0.04 -0.12 -0.04 -0.16 c-0.04 -0.28 -0.08 -0.52 -0.08 -0.8 c0.04 -0.36 0 -0.72 0 -1.08 c0 -0.28 0.04 -0.56 -0.04 -0.84 c-0.04 -0.04 -0.04 -0.08 -0.04 -0.12 c0.08 -0.72 -0.12 -1.44 -0.28 -2.12 c0 -0.04 0 -0.08 -0.04 -0.12 c-0.2 -0.36 -0.36 -0.8 -0.68 -1.12 c-0.2 -0.24 -0.44 -0.48 -0.68 -0.68 c-0.28 -0.24 -0.6 -0.36 -0.88 -0.52 l-0.2 0 c-0.44 0 -0.84 0.16 -1.24 0.36 c-0.08 0.04 -0.12 0.12 -0.2 0.16 l-0.56 0.56 s-0.4 0.4 -0.44 0.68 c0 0.12 -0.04 0.2 -0.04 0.28 c-0.04 0.08 -0.08 0.2 -0.04 0.32 c0.04 0.32 -0.16 0.68 -0.12 1 l0 2.88 c0 0.16 0.04 0.32 0.04 0.52 z M102.036 36.04 c0.08 -0.12 0.2 -0.24 0.28 -0.32 c0.16 -0.2 0.24 -0.4 0.28 -0.6 c0.04 -0.84 0.08 -1.64 0.08 -2.44 s0 -1.56 0.04 -2.36 c0 -0.44 0.08 -0.88 0.12 -1.32 c0 -0.12 0 -0.24 0.04 -0.36 c0.28 -0.96 0.32 -0.92 1.32 -1.12 l0.36 0 c0.2 0.04 0.44 0.08 0.64 0.08 s0.4 -0.04 0.56 -0.08 c0.12 0 0.28 0.08 0.32 0.2 c0.16 0.52 0.32 1 0.28 1.56 c-0.04 0.36 0 0.76 0 1.12 c0 1.16 -0.08 2.28 -0.2 3.44 c-0.04 0.16 -0.08 0.36 -0.08 0.52 c0 0.72 -0.2 1.4 -0.4 2.08 l-0.24 0.84 c-0.24 0.2 -0.44 0.4 -0.64 0.6 c-0.2 0.16 -0.36 0.36 -0.52 0.56 c-0.12 0.16 -0.24 0.32 -0.48 0.4 c-0.16 0.04 -0.28 0.2 -0.44 0.28 c-0.2 0.12 -0.44 0.2 -0.68 0.2 c-0.44 -0.04 -0.88 -0.04 -1.32 -0.04 c-0.12 0 -0.2 0 -0.32 -0.04 c-0.4 -0.08 -0.84 -0.12 -1.28 -0.12 c-0.12 0 -0.24 -0.04 -0.36 -0.08 c-0.28 -0.04 -0.52 -0.16 -0.8 -0.2 c-0.24 -0.04 -0.44 -0.08 -0.64 -0.28 c-0.08 -0.08 -0.2 -0.12 -0.32 -0.2 c-0.16 -0.08 -0.36 -0.16 -0.52 -0.2 c-0.16 -0.08 -0.28 -0.16 -0.36 -0.28 c-0.2 -0.32 -0.48 -0.56 -0.72 -0.76 c-0.12 -0.16 -0.12 -0.32 -0.12 -0.44 c-0.04 -0.28 -0.12 -0.52 -0.24 -0.8 c-0.16 -0.36 -0.28 -0.72 -0.4 -1.08 c-0.28 -0.8 -0.44 -1.64 -0.4 -2.52 l0 -4.36 c0 -0.52 -0.04 -1.08 -0.04 -1.6 c0 -0.8 0 -1.56 0.08 -2.36 c0.04 -0.56 0.08 -1.16 -0.04 -1.76 l0 -0.44 c0.08 -0.8 0.08 -1.6 0.2 -2.4 c0.08 -0.36 0.12 -0.72 0.2 -1.08 c0.12 -0.32 0.16 -0.64 0.2 -0.96 c0.04 -0.44 0.12 -0.84 0.24 -1.28 c0.08 -0.36 0.16 -0.72 0.16 -1.08 c0.04 -0.24 0.12 -0.48 0.28 -0.68 c0.16 -0.24 0.32 -0.44 0.4 -0.68 c0.04 -0.08 0.12 -0.16 0.2 -0.24 c0.4 -0.32 0.84 -0.64 1.28 -0.96 c0.08 -0.04 0.16 -0.08 0.2 -0.08 c0.32 0 0.6 -0.12 0.88 -0.12 c0.72 -0.08 1.44 -0.24 2.2 -0.24 c0.44 -0.08 0.88 0.08 1.32 0.08 c0.04 0 0.08 0.04 0.12 0.04 c0.28 0.2 0.6 0.28 0.88 0.4 c0.32 0.2 0.64 0.36 0.84 0.72 c0.08 0.16 0.24 0.28 0.4 0.4 s0.28 0.28 0.32 0.48 c0.04 0.28 0.16 0.52 0.32 0.72 c0.16 0.32 0.28 0.64 0.32 1 c0.04 0.48 0.16 0.96 0.12 1.44 c0 0.12 0.04 0.24 0.08 0.36 l0 0.24 c-0.16 0.48 -0.04 1 -0.08 1.52 c-0.04 0.88 -0.04 1.76 -0.08 2.64 c0 0.56 -0.12 1.12 -0.24 1.68 c-0.04 0.12 -0.08 0.2 -0.12 0.32 c-0.08 0.12 -0.12 0.16 -0.24 0.2 c-0.44 0.08 -0.84 0.16 -1.32 0.08 c-0.36 -0.04 -0.76 -0.04 -1.16 -0.16 c-0.16 -0.08 -0.24 -0.16 -0.28 -0.4 c0 -0.12 0 -0.24 0.04 -0.36 c0 -0.28 0.04 -0.52 0.08 -0.8 c0.12 -0.84 0.2 -1.64 0.2 -2.48 l0 -2.56 c0 -0.72 -0.2 -1.32 -0.56 -1.88 c-0.2 -0.32 -0.52 -0.52 -0.92 -0.52 c-0.52 0 -1.08 0.04 -1.6 0.16 c-0.08 0 -0.2 0.04 -0.28 0.12 c-0.28 0.28 -0.56 0.6 -0.68 1 c-0.12 0.48 -0.28 0.96 -0.24 1.44 c0 0.04 0 0.12 -0.04 0.16 c-0.16 0.68 -0.24 1.36 -0.32 2.04 c-0.04 0.32 -0.12 0.68 -0.12 1 l0 0.68 c-0.04 0.24 -0.08 0.52 0 0.8 l0 0.44 c-0.04 0.32 -0.08 0.68 -0.08 1 c0 0.52 -0.04 1 -0.12 1.48 c-0.04 0.12 -0.04 0.24 0 0.36 c0.08 0.4 0.08 0.84 0 1.24 c0 0.16 0 0.32 0.04 0.52 c0 0.28 0.04 0.56 0.04 0.88 c0 0.36 0 0.72 -0.04 1.08 c0 0.32 0 0.64 -0.04 0.96 l0 0.36 c0.04 0.48 0.04 0.96 0.04 1.4 c0.04 0.64 0.12 1.28 0.4 1.88 c0.12 0.32 0.24 0.68 0.4 1 c0.08 0.24 0.24 0.36 0.44 0.48 c0.44 0.28 0.96 0.36 1.48 0.4 c0.44 0.04 0.92 0.08 1.4 0.04 z M114.482 39.72 l-0.36 -0.12 s-0.24 -0.04 -0.32 0 s-0.2 0.04 -0.28 0.04 c-0.6 -0.08 -1.32 -0.24 -1.8 -0.8 c-0.04 0 -0.08 -0.04 -0.12 -0.08 c-0.64 -0.4 -1.04 -1 -1.6 -1.52 c-0.2 -0.16 -0.32 -0.36 -0.44 -0.56 c-0.08 -0.16 -0.16 -0.36 -0.2 -0.52 c-0.12 -0.28 -0.2 -0.56 -0.2 -0.84 c0.04 -0.2 -0.04 -0.4 -0.08 -0.6 c-0.08 -0.28 -0.12 -0.56 -0.2 -0.84 c-0.2 -0.68 -0.28 -1.36 -0.44 -2.04 c-0.08 -0.36 -0.08 -0.72 -0.08 -1.08 c0 -1.24 -0.04 -2.48 -0.04 -3.72 s0.04 -2.48 0.04 -3.76 l0 -1.8 c0.04 -0.28 0 -0.56 -0.16 -0.8 c-0.04 -0.08 -0.04 -0.2 -0.04 -0.32 c0.04 -0.08 0.04 -0.12 0.04 -0.2 c0.08 -0.44 0.08 -0.88 -0.04 -1.32 c-0.04 -0.2 -0.04 -0.4 0 -0.6 c0.08 -0.36 0.12 -0.68 0 -1 l0 -0.28 c0.04 -0.12 0.04 -0.2 0.08 -0.32 c0.12 -0.28 0.16 -0.6 0.16 -0.92 c0 -0.24 0.04 -0.48 0.16 -0.72 c0.2 -0.48 0.52 -0.88 0.72 -1.36 c0.04 -0.08 0.08 -0.16 0.16 -0.2 c0.4 -0.44 0.8 -0.88 1.28 -1.2 c0.32 -0.2 0.6 -0.44 0.92 -0.68 c0.16 -0.16 0.36 -0.24 0.6 -0.28 c0.32 -0.08 0.6 -0.12 0.92 -0.2 c0.16 -0.08 0.32 -0.08 0.44 -0.08 c0.16 -0.04 0.32 -0.04 0.48 -0.08 c0.12 -0.04 0.28 -0.04 0.4 0.04 c0.04 0.04 0.12 0.04 0.16 0.08 c0.2 0.12 0.44 0.16 0.68 0.16 l0.4 0 s0.28 0.04 0.4 0.16 c0.04 0.04 0.08 0.08 0.12 0.08 c0.12 0.16 0.28 0.24 0.44 0.28 c0.44 0.16 0.72 0.44 1 0.8 c0.16 0.24 0.36 0.52 0.6 0.72 c0.08 0.08 0.16 0.2 0.2 0.32 c0.12 0.28 0.24 0.52 0.32 0.84 c0.04 0.2 0.16 0.4 0.24 0.6 c0.12 0.24 0.2 0.52 0.24 0.76 c0 0.36 0.08 0.72 0.16 1.08 c0.08 0.32 0.12 0.68 0.12 1 c-0.04 0.32 0 0.64 0.12 0.92 c0.04 0.12 0.04 0.24 0.04 0.32 c0.04 0.2 0.04 0.4 -0.08 0.52 c-0.08 0.12 -0.08 0.28 -0.08 0.4 l0 0.72 l0 13.24 c0.04 0.6 -0.12 1.2 -0.36 1.76 l-0.84 1.92 c-0.08 0.12 -0.16 0.2 -0.24 0.32 c-0.36 0.52 -0.92 0.84 -1.4 1.2 c-0.2 0.16 -0.4 0.24 -0.64 0.28 c-0.12 0 -0.28 0.04 -0.4 0.04 c-0.4 0 -0.8 0.12 -1.2 0.24 z M111.482 26.52 l0 4.48 l0 0.68 c0 0.12 0 0.24 0.04 0.32 c0.16 0.28 0.2 0.56 0.24 0.84 c0.04 0.12 0.08 0.28 0.12 0.4 c0.16 0.4 0.32 0.76 0.48 1.16 c0.08 0.16 0.16 0.36 0.24 0.48 c0.28 0.32 0.56 0.64 0.8 0.92 c0.32 0.36 0.76 0.48 1.24 0.44 c0.36 -0.04 0.64 -0.16 0.8 -0.52 c0.04 -0.08 0.04 -0.16 0.08 -0.24 c0 -0.36 0.12 -0.72 0.24 -1.08 c0.08 -0.28 0.16 -0.56 0.16 -0.84 c0 -0.2 0.08 -0.4 0.12 -0.6 c0.24 -0.56 0.32 -1.16 0.36 -1.76 c0 -0.44 0 -0.84 0.04 -1.28 c0 -0.16 0 -0.32 -0.08 -0.48 c-0.04 -0.08 -0.04 -0.2 0 -0.32 c0.12 -0.52 0.08 -1.04 0.04 -1.56 c-0.08 -0.76 -0.04 -1.56 -0.04 -2.32 c0 -1.48 0.04 -2.92 0.04 -4.4 c0.04 -0.24 0.04 -0.44 -0.04 -0.68 c-0.04 -0.08 -0.04 -0.2 -0.04 -0.32 c-0.04 -0.56 -0.12 -1.12 -0.24 -1.68 s-0.24 -1.12 -0.24 -1.72 c0 -0.28 -0.12 -0.56 -0.24 -0.84 c-0.08 -0.16 -0.2 -0.28 -0.28 -0.44 c-0.08 -0.2 -0.24 -0.32 -0.44 -0.4 c-0.08 -0.08 -0.2 -0.12 -0.28 -0.16 c-0.6 -0.2 -1.12 -0.16 -1.6 0.24 c-0.28 0.24 -0.52 0.48 -0.76 0.76 c-0.16 0.12 -0.24 0.32 -0.28 0.52 c-0.08 0.4 -0.16 0.84 -0.24 1.24 l0 0.2 c0 0.2 -0.04 0.4 0 0.6 c0 0.24 -0.16 0.44 -0.2 0.68 l0 0.04 c-0.04 0.52 -0.12 1.04 -0.16 1.56 c-0.04 0.36 -0.04 0.76 0.04 1.12 c0.04 0.12 0.04 0.24 0.04 0.36 c0 1.56 -0.04 3.16 0.04 4.6 z M122.808 11.68 c0.12 -0.04 0.24 -0.04 0.36 -0.12 c0.52 -0.24 1.04 -0.2 1.6 -0.2 c0.12 0.04 0.24 0.04 0.32 0.08 c0.24 0.04 0.4 0.16 0.44 0.44 c0.08 0.28 0.12 0.56 0.12 0.84 c0.04 0.6 0.16 1.16 0.12 1.76 c0.08 1.08 0 2.12 0.04 3.2 c0 0.2 0.04 0.44 0.04 0.64 s0.04 0.4 0.04 0.6 l0 3.84 c0 0.28 0.04 0.52 0.04 0.8 l0 0.68 l0 5.36 l0 0.44 c0 0.16 0.04 0.32 0.12 0.48 c0.16 0.24 0.2 0.56 0.24 0.88 c0 0.12 0.04 0.24 0.12 0.36 c0.2 0.44 0.36 0.88 0.52 1.36 c0.12 0.32 0.28 0.6 0.52 0.84 c0.24 0.28 0.44 0.52 0.68 0.8 c0.08 0.08 0.16 0.16 0.24 0.2 c0.2 0.16 0.44 0.28 0.68 0.28 c0.36 0.04 0.76 0.04 1.08 -0.12 c0.08 -0.04 0.16 -0.12 0.2 -0.2 c0.12 -0.16 0.2 -0.32 0.24 -0.52 c0.04 -0.44 0.16 -0.88 0.28 -1.28 c0.12 -0.28 0.16 -0.52 0.16 -0.8 c0.04 -0.28 0.12 -0.6 0.24 -0.88 c0.24 -0.76 0.36 -1.56 0.36 -2.36 l0 -0.84 l0 -0.6 c-0.16 -0.28 -0.04 -0.52 0 -0.76 c0.04 -0.56 0.04 -1.08 0 -1.6 c-0.08 -0.96 -0.04 -1.96 -0.04 -2.92 c0 -1.76 0.04 -3.48 0.04 -5.24 c0 -1.12 0.04 -2.24 0.08 -3.36 c0 -0.32 0.04 -0.64 0.12 -0.92 c0.04 -0.24 0.04 -0.48 0.08 -0.72 c0.04 -0.08 0.08 -0.16 0.2 -0.2 c0.08 0 0.16 0 0.24 -0.04 c0.64 -0.32 1.28 -0.24 1.96 -0.2 c0.16 0 0.28 0.08 0.44 0.12 c0.08 0 0.16 0.08 0.16 0.16 c0.12 0.68 0.24 1.32 0.24 1.96 c0 1.36 0.04 2.72 0.04 4.04 c0.04 5 0 9.96 0 14.92 c0 0.84 0.04 0.84 -0.28 1.56 c-0.36 0.84 -0.72 1.64 -1.08 2.48 c-0.04 0.04 -0.04 0.08 -0.08 0.12 c0 0.04 -0.04 0.08 -0.08 0.12 c-0.28 0.16 -0.36 0.52 -0.64 0.72 c-0.36 0.2 -0.68 0.48 -1.04 0.72 c-0.24 0.2 -0.52 0.32 -0.84 0.36 c-0.28 0 -0.6 0.12 -0.92 0.12 c-0.16 0 -0.32 0.08 -0.48 0.12 c-0.24 0.08 -0.44 0.08 -0.68 -0.04 c-0.16 -0.08 -0.32 -0.08 -0.48 0 s-0.32 0.04 -0.48 0 c-0.28 -0.04 -0.6 -0.12 -0.88 -0.24 c-0.36 -0.12 -0.72 -0.32 -1 -0.64 c-0.04 -0.04 -0.12 -0.12 -0.2 -0.16 c-0.28 -0.16 -0.48 -0.36 -0.68 -0.6 c-0.28 -0.32 -0.56 -0.6 -0.88 -0.88 c-0.28 -0.28 -0.48 -0.6 -0.72 -0.88 l-0.04 -0.04 c-0.08 -0.48 -0.36 -0.88 -0.36 -1.32 c0 -0.28 -0.04 -0.56 -0.12 -0.8 c-0.08 -0.4 -0.2 -0.76 -0.28 -1.16 c-0.28 -0.92 -0.32 -1.88 -0.56 -2.8 c0 -0.36 -0.04 -0.72 -0.04 -1.12 c0 -2.6 0 -5.24 0.04 -7.88 c0 -0.4 0 -0.84 0.04 -1.24 c0 -0.92 0.04 -1.8 0.04 -2.72 c0 -1.2 0.04 -2.36 0.16 -3.56 c0.04 -0.36 0.08 -0.76 0.12 -1.12 c0 -0.12 0.08 -0.2 0.08 -0.32 z M143.53400000000002 26.4 c0.04 -2.96 0.04 -5.92 0.04 -8.88 c0 -0.52 0.04 -1.08 0.08 -1.6 c0 -0.28 -0.04 -0.56 -0.04 -0.8 c0 -0.04 -0.04 -0.08 -0.08 -0.08 c-0.16 -0.04 -0.32 -0.04 -0.44 -0.04 l-4.44 0 l-0.72 0 c-0.12 0 -0.24 -0.04 -0.32 -0.08 c-0.08 0 -0.16 -0.08 -0.2 -0.16 c0 -0.16 -0.04 -0.28 -0.08 -0.44 c-0.24 -0.68 -0.24 -1.36 -0.16 -2.08 c0.04 -0.16 0.12 -0.32 0.16 -0.48 c0.04 -0.08 0.12 -0.16 0.2 -0.16 c0.08 -0.04 0.16 -0.04 0.24 -0.04 l0.52 0 l12.6 0 l1 0 c0.12 0 0.2 0 0.32 0.04 c0.12 0 0.2 0.04 0.24 0.16 c0.2 0.96 0.28 1.92 0.04 2.84 c-0.08 0.2 -0.2 0.32 -0.36 0.36 c-0.24 0 -0.44 0.04 -0.64 0.04 l-3.88 0 l-0.6 0 c-0.08 0.04 -0.16 0.12 -0.16 0.2 l0 0.24 c0.08 0.4 0.04 0.8 0.04 1.16 l0 19.08 c0 0.4 -0.04 0.8 -0.04 1.2 l0 1.08 l0 0.68 c-0.04 0.12 -0.12 0.24 -0.24 0.28 c-0.6 0.08 -1.2 0.16 -1.84 0.16 c-0.28 -0.04 -0.56 -0.08 -0.8 -0.16 c-0.16 -0.04 -0.24 -0.16 -0.24 -0.32 c-0.04 -0.44 -0.08 -0.88 -0.08 -1.36 c-0.08 -1.48 -0.08 -2.96 -0.08 -4.44 l0 -2.68 l0 -2 l0 -1.72 l-0.04 0 z"/></g>
			</g>
		</svg>
	